<?xml version="1.0" encoding="UTF-8"?>
<svg id="_图层_1" xmlns="http://www.w3.org/2000/svg" version="1.1" viewBox="0 0 512 512">
  <!-- Generator: Adobe Illustrator 30.2.1, SVG Export Plug-In . SVG Version: 2.1.1 Build 1)  -->
  <defs>
    <style>
      .st0 {
        fill: #3d8cf0;
      }

      .st1 {
        fill: #fff;
      }

      .st2 {
        fill: #f0f0f0;
      }
    </style>
  </defs>
  <g>
    <path class="st2" d="M396.6,13H122.4c-19.9,0-36.2,16.2-36.2,36.2v37.7h-7.9c-17.2,0-31.3,14-31.3,31.3s14,31.3,31.3,31.3h7.9v29.3h-7.9c-17.2,0-31.3,14-31.3,31.3s14,31.3,31.3,31.3h7.9v29.3h-7.9c-17.2,0-31.2,14-31.2,31.2s3.2,16.2,9.2,22.2c5.9,5.9,13.8,9.2,22.2,9.2h7.9v29.3h-7.9c-17.2,0-31.2,14-31.2,31.2s3.2,16.2,9.2,22.2c5.9,5.9,13.8,9.2,22.2,9.2h7.9v37.7c0,19.9,16.2,36.2,36.2,36.2h274.2c37.5,0,68.1-30.7,68.2-68.2V81.2c0-37.5-30.7-68.1-68.2-68.2h-.2Z"/>
    <path class="st1" d="M396.6,19.2H122.4c-16.6,0-30,13.5-30,30v43.8h-14c-13.9,0-25.2,11.3-25.2,25.2s11.3,25.2,25.2,25.2h14v41.5h-14c-13.9,0-25.2,11.3-25.2,25.2s11.3,25.2,25.2,25.2h14v41.5h-14c-13.9,0-25.1,11.3-25.2,25.2,0,6.7,2.6,13.1,7.4,17.8s11.1,7.4,17.8,7.4h14v41.5h-14c-13.9,0-25.1,11.3-25.2,25.2,0,6.7,2.6,13.1,7.4,17.8s11.1,7.4,17.8,7.4h14v43.9c0,16.6,13.4,30,30,30h274.2c34.1,0,62-27.9,62-62V81.2c0-34.1-27.9-62-62-62Z"/>
    <path class="st0" d="M133.6,393.8c0,7.2-5.8,12.9-12.9,12.9h-42.3c-7.2,0-12.9-5.8-12.9-12.9s5.8-12.9,12.9-12.9h42.3c7.2,0,12.9,5.8,12.9,12.9Z"/>
    <path class="st0" d="M133.6,301.9c0,7.2-5.8,12.9-12.9,12.9h-42.3c-7.2,0-12.9-5.8-12.9-12.9s5.8-12.9,12.9-12.9h42.3c7.2,0,12.9,5.8,12.9,12.9Z"/>
    <path class="st0" d="M133.6,210.1c0,7.2-5.8,12.9-12.9,12.9h-42.3c-7.2,0-12.9-5.8-12.9-12.9s5.8-12.9,12.9-12.9h42.3c7.2,0,12.9,5.8,12.9,12.9Z"/>
    <path class="st0" d="M133.6,118.2c0,7.2-5.8,12.9-12.9,12.9h-42.3c-7.2,0-12.9-5.8-12.9-12.9s5.8-12.9,12.9-12.9h42.3c7.2,0,12.9,5.8,12.9,12.9Z"/>
    <path class="st0" d="M396.6,31.4H122.4c-9.8,0-17.8,7.9-17.8,17.8v45.9h16c12.8,0,23.2,10.4,23.2,23.2s-10.3,23.2-23.2,23.2h-16v45.7h16c12.8,0,23.2,10.3,23.2,23.2s-10.3,23.2-23.2,23.2h-16v45.7h16c12.8,0,23.2,10.3,23.2,23.1s-10.3,23.2-23.1,23.2h-16.1v45.7h16c12.8,0,23.2,10.3,23.2,23.1s-10.3,23.2-23.1,23.2h-16.1v45.9c0,9.8,7.9,17.8,17.8,17.8h274.2c27.5,0,49.8-22.3,49.8-49.8V81.2c0-27.5-22.3-49.8-49.8-49.8h0Z"/>
  </g>
  <g>
    <rect class="st1" x="165.4" y="91.1" width="236.3" height="84.1" rx="12.5" ry="12.5"/>
    <g>
      <g>
        <circle class="st1" cx="212.3" cy="241.4" r="22.8"/>
        <circle class="st1" cx="212.3" cy="318.8" r="22.8"/>
        <circle class="st1" cx="212.3" cy="396.1" r="22.8"/>
      </g>
      <g>
        <circle class="st1" cx="295.6" cy="241.4" r="22.8"/>
        <circle class="st1" cx="295.6" cy="318.8" r="22.8"/>
        <circle class="st1" cx="295.6" cy="396.1" r="22.8"/>
      </g>
      <g>
        <circle class="st1" cx="378.8" cy="241.4" r="22.8"/>
        <path class="st1" d="M356.1,396.1c0,12.6,10.2,22.8,22.8,22.8s22.8-10.2,22.8-22.8v-77.3c0-12.6-10.2-22.8-22.8-22.8s-22.8,10.2-22.8,22.8v77.3Z"/>
      </g>
    </g>
  </g>
</svg>